<svg width="1280" height="151" viewBox="0 0 1280 151" fill="none" xmlns="http://www.w3.org/2000/svg">
<path d="M322 150.803H-143.5H-242L-94.5 113.803C-97.6667 94.1366 -87.8 58.2032 -23 71.8032C58 88.8032 83 22.8032 157 54.8032C231 86.8032 169.5 94.3032 238.5 113.803C293.7 129.403 317.167 144.97 322 150.803Z" fill="white"/>
<path d="M1347.5 150.803H721.5C738.833 138.47 778.4 116.803 798 128.803C822.5 143.803 872 89.3032 896.5 113.803C921 138.303 973 71.8032 978 32.3032C983 -7.19675 1061.5 -14.1968 1091.5 32.3032C1121.5 78.8032 1246.5 39.8032 1308 71.8032C1357.2 97.4032 1354.83 135.137 1347.5 150.803Z" fill="white"/>
</svg>
