<svg width="1280" height="583" viewBox="0 0 1280 583" fill="none" xmlns="http://www.w3.org/2000/svg">
<path d="M28.5 298.5C2.9 322.1 -18.1667 318.333 -25.5 313.5V671H1295.5V224.5C1280.83 249.167 1240.1 301.5 1194.5 313.5C1137.5 328.5 1125.5 173 1101 128.5C1076.5 84 953 247 921 279C889 311 864.5 392.5 812.5 392.5C760.5 392.5 731 298.5 716.5 247C702 195.5 645 266.5 593 313.5C541 360.5 519 422 504.5 439C490 456 428 441.5 401 392.5C374 343.5 324.5 62 280 12.5C235.5 -37 181.5 79.5 154.5 128.5C127.5 177.5 60.5 269 28.5 298.5Z" fill="#121122"/>
</svg>
