<svg xmlns="http://www.w3.org/2000/svg" version="1.1" xmlns:xlink="http://www.w3.org/1999/xlink" xmlns:svgjs="http://svgjs.dev/svgjs" viewBox="0 0 800 800"><defs><linearGradient x1="50%" y1="0%" x2="50%" y2="100%" id="ccchaos-grad"><stop stop-color="hsl(206, 75%, 49%)" stop-opacity="1" offset="0%"></stop><stop stop-color="hsl(331, 90%, 56%)" stop-opacity="1" offset="100%"></stop></linearGradient></defs><g stroke-width="2" stroke="url(#ccchaos-grad)" fill="none" stroke-linecap="round"><path d="M378.03 59.92Q387.35 68.08 397.09 77.09 407.25 86.54 417.82 95.98 428.8 104.92 440.15 112.94 451.85 119.68 463.84 124.95 476.1 128.68 488.55 130.99 501.14 132.16 513.81 132.6 526.49 132.81 539.11 133.34 551.59 134.7 563.87 137.34 575.88 141.56 587.55 147.52 598.81 155.16 609.62 164.24 619.93 174.38 629.69 185.05 638.87 195.65 647.45 205.58 655.43 214.29 662.8 221.38 684.65 234.92 675.95 250.19 666.75 260.41 658.89 270.62 652.92 280.84 649.24 291.05 648.13 301.27 649.65 311.48 653.71 321.7 660.01 331.92 668.12 342.13 677.47 352.35 687.42 362.56 697.27 372.78 706.33 382.99 713.98 393.21 719.68 403.42 723.03 413.64 723.81 423.85 721.96 434.07 717.6 444.28 711.04 454.5 702.73 464.71 693.26 474.93 683.29 485.15 673.5 495.36 664.59 505.58 657.16 515.79 651.74 526.01 648.71 536.22 648.27 546.44 650.46 556.65 643.98 572.04 638.03 587.36 632.53 601.51 627.4 613.47 611.35 625.93 600.1 620.22 581.7 609.34 566.63 615.01 559.55 625.18 551.96 638.43 543.85 653.9 535.22 670.51 526.09 686.99 516.47 702.13 506.39 714.81 495.89 724.18 485.01 729.76 473.8 731.44 462.32 729.57 450.62 724.89 438.75 718.43 426.79 711.44 414.79 705.25 402.81 701.11 390.18 684.93 376.78 680.37 369.54 684.07 361.97 689.88 354.05 696.59 345.77 702.9 337.15 707.58 328.18 709.59 318.9 708.17 309.31 702.97 299.45 694.02 289.36 681.78 279.06 667.04 268.59 650.88 258 634.5 247.33 619.11 236.62 605.81 225.91 595.44 215.23 588.56 204.62 585.29 194.12 585.39 183.76 588.26 173.54 592.99 163.5 598.49 153.65 603.61 144 607.24 134.54 608.43 125.28 606.55 116.2 601.26 107.31 592.63 106.9 581.97 106.98 571.31 107.55 560.65 108.57 549.99 109.97 539.32 111.64 528.66 113.49 518 115.36 507.34 117.15 496.68 118.71 486.01 119.94 475.35 120.76 464.69 121.11 454.03 120.97 443.37 120.33 432.71 119.26 422.04 117.82 411.38 116.12 400.72 114.26 390.06 112.39 379.4 110.63 368.74 109.1 358.07 107.92 347.41 107.16 336.75 106.87 326.09 107.08 315.43 107.77 304.77 108.89 294.1 110.37 283.44 112.11 272.78 113.97 262.12 115.83 251.46 125.85 248.08 135.93 242.69 146.05 235.36 156.17 226.34 166.28 216.11 176.33 205.22 186.28 194.32 196.12 184.02 205.8 174.87 215.3 167.26 224.59 161.43 233.64 157.41 250.85 154.38 267.24 153.78 282.3 151.88 296.63 146.43 303.44 141.02 310.09 134.05 316.62 125.77 323.08 116.54 329.51 106.82 335.96 97.13 342.49 87.95 349.14 79.7 355.98 72.68 363.04 67.06 374.2 61.39 378.03 59.92" stroke-dasharray="7 6" transform="rotate(0, 400, 400)" opacity="0.05"></path><path d="M380.73 72.25Q390.6 80.19 400.83 88.95 411.4 98.17 422.3 107.42 433.5 116.27 444.96 124.3 456.64 131.17 468.49 136.67 480.46 140.7 492.5 143.31 504.55 144.72 516.54 145.26 528.42 145.35 540.13 145.49 551.6 146.17 562.78 147.83 573.61 150.85 584.04 155.44 594.04 161.69 603.56 169.49 612.58 178.61 621.06 188.63 629.01 199.06 636.41 209.36 643.28 218.97 649.62 227.42 667.62 241.49 678.64 243.74 669.19 253.71 660.11 263.68 651.98 273.65 645.34 283.63 640.61 293.6 638.09 303.57 637.95 313.54 640.19 323.52 644.68 333.49 651.11 343.46 659.09 353.43 668.09 363.41 677.53 373.38 686.81 383.35 695.33 393.32 702.54 403.3 707.98 413.27 711.29 423.24 712.27 433.21 710.84 443.19 707.11 453.16 701.31 463.13 693.81 473.11 685.1 483.08 675.74 493.05 666.34 503.02 657.49 513 649.77 522.97 643.67 532.94 639.59 542.92 637.79 552.89 638.39 562.86 631.42 577.3 624.99 590.48 613.68 608.32 603.46 617.1 594.37 612.15 585.52 602.7 568.88 597.75 555.7 608.58 549.64 620.12 543.17 634.04 536.25 649.49 528.87 665.4 521.03 680.69 512.74 694.29 503.99 705.32 494.8 713.14 485.21 717.42 475.24 718.2 464.93 715.86 454.32 711.1 443.45 704.89 432.37 698.34 421.14 692.61 409.8 688.78 396.64 672.94 382.54 667.75 374.9 670.75 366.92 675.87 358.6 682.07 349.95 688.24 340.99 693.24 331.73 696.1 322.21 696.07 312.44 692.67 302.47 685.79 292.33 675.65 282.06 662.81 271.7 648.09 261.28 632.48 250.84 617.06 240.42 602.87 230.05 590.82 219.77 581.6 209.6 575.59 199.57 572.88 189.69 573.19 180 575.97 170.49 580.41 161.17 585.55 152.05 590.38 134.47 593.96 117.42 589.61 117.29 579.32 117.66 569.02 118.51 558.73 119.77 548.43 121.37 538.14 123.2 527.85 125.15 517.55 127.09 507.26 128.89 496.96 130.44 486.67 131.64 476.37 132.42 466.08 132.71 455.78 132.51 445.49 131.82 435.2 130.7 424.9 129.21 414.61 127.44 404.31 125.52 394.02 123.56 383.72 121.7 373.43 120.05 363.14 118.72 352.84 117.79 342.55 117.32 332.25 117.35 321.96 117.88 311.67 118.86 301.37 120.23 291.08 121.91 280.78 123.79 270.49 125.75 260.2 135.42 254.59 145.17 247.17 154.98 238.22 164.83 228.17 174.68 217.53 184.52 206.9 194.3 196.84 204 187.85 213.58 180.3 223.02 174.43 232.29 170.29 241.36 167.76 258.7 166.51 275.27 166.54 290.52 163.86 304.99 157.31 311.79 151.4 318.39 144.09 324.8 135.63 331.06 126.42 337.21 116.88 343.28 107.49 349.32 98.69 355.38 90.84 374.28 75.92 380.73 72.25" stroke-dasharray="7 8" transform="rotate(4.04, 400, 400)" opacity="0.09"></path><path d="M385.47 84.57Q395.68 92.29 406.16 100.8 416.9 109.77 427.86 118.81 438.99 127.53 450.27 135.55 461.65 142.53 473.07 148.24 484.5 152.57 495.87 155.52 507.13 157.23 518.24 157.96 529.13 158.06 539.78 157.96 550.11 158.12 560.1 158.97 569.71 160.9 578.89 164.19 587.63 169.02 595.91 175.41 603.71 183.24 611.02 192.26 617.85 202.08 624.21 212.25 630.11 222.27 635.57 231.64 645.2 245.91 653.89 255.32 655.33 262.15 644.71 276.9 637.74 286.61 632.32 296.32 628.78 306.03 627.33 315.75 628.07 325.46 630.93 335.17 635.76 344.88 642.26 354.59 650.05 364.3 658.67 374.01 667.61 383.72 676.34 393.43 684.33 403.14 691.11 412.85 696.28 422.56 699.54 432.27 700.68 441.98 699.65 451.69 696.5 461.4 691.42 471.11 684.72 480.82 676.78 490.53 668.08 500.24 659.14 509.95 650.49 519.66 642.64 529.37 636.06 539.08 631.14 548.79 628.16 558.5 627.32 568.21 619.9 580.3 613.01 590.32 592.87 600.45 580.21 595.55 564.71 584.18 553.55 586.07 548.79 593.25 543.81 603.31 538.55 615.79 532.98 629.99 527.07 645.05 520.78 660.02 514.09 673.94 507.01 685.96 499.51 695.38 491.61 701.73 483.3 704.83 474.61 704.82 465.55 702.09 456.14 697.33 446.43 691.39 436.44 685.27 426.2 679.97 415.77 676.45 409.01 666.3 401.92 659.31 386.6 656.62 370.3 662 361.61 667.65 352.63 673.55 343.4 678.71 333.94 682.23 324.27 683.35 314.44 681.57 304.48 676.63 294.42 668.58 284.3 657.76 274.15 644.75 264 630.35 253.9 615.45 243.87 601 233.94 587.88 224.13 576.85 214.46 568.47 204.96 563.03 195.63 560.58 186.49 560.86 177.54 563.38 168.79 567.45 160.22 572.22 135.8 575.57 128.55 561.8 129.67 551.93 131.16 542.07 132.94 532.2 134.9 522.34 136.92 512.47 138.89 502.61 140.69 492.74 142.21 482.88 143.36 473.01 144.07 463.15 144.3 453.28 144.05 443.42 143.31 433.55 142.14 423.69 140.6 413.82 138.79 403.96 136.81 394.09 134.79 384.23 132.84 374.36 131.07 364.5 129.6 354.63 128.51 344.76 127.86 334.9 127.69 325.03 128.02 315.17 128.82 305.3 130.05 295.44 131.63 285.57 133.47 275.71 135.46 265.84 144.75 258.24 154.14 249.27 163.61 239.34 173.14 228.96 182.71 218.64 192.29 208.9 201.85 200.18 211.37 192.83 220.82 187.06 230.16 182.93 239.37 180.35 248.43 179.09 265.86 179.07 282.63 179.25 298.14 175.55 312.88 167.83 319.79 161.47 326.46 153.87 332.91 145.31 339.15 136.17 345.2 126.87 351.11 117.82 356.9 109.42 362.61 101.98 379.72 88 385.47 84.57" stroke-dasharray="2 7" transform="rotate(8.08, 400, 400)" opacity="0.13"></path><path d="M391.73 96.91Q402.03 104.39 412.51 112.63 423.12 121.33 433.85 130.16 444.64 138.73 455.46 146.7 466.27 153.76 477.01 159.67 487.65 164.29 498.14 167.59 508.44 169.64 518.51 170.64 528.3 170.87 537.79 170.69 555.52 171.12 572.07 173.84 579.62 177.3 586.74 182.23 593.43 188.62 599.7 196.34 605.56 205.16 611.02 214.72 616.12 224.6 620.88 234.36 629.45 251.09 637.4 263.96 639.03 273.42 629.85 288.59 624.06 298 619.84 307.41 617.43 316.81 616.96 326.22 618.46 335.63 621.84 345.04 626.92 354.44 633.43 363.85 641 373.26 649.22 382.66 657.65 392.07 665.83 401.48 673.3 410.89 679.67 420.29 684.59 429.7 687.78 439.11 689.07 448.51 688.39 457.92 685.79 467.33 681.4 476.73 675.45 486.14 668.29 495.55 660.28 504.95 651.89 514.36 643.55 523.77 635.72 533.18 628.84 542.58 623.28 551.99 619.34 561.4 617.23 570.8 602.34 584.67 588.86 590.91 577.42 586.17 566.98 577.86 551.17 571.87 540.27 578.91 535.87 587.78 531.35 598.98 526.66 611.97 521.77 626.05 516.64 640.41 511.23 654.22 505.52 666.68 499.48 677.1 486.18 688.47 471.8 691.29 463.98 688.27 455.82 683.55 447.33 677.91 438.52 672.22 429.43 667.35 420.07 664.11 412.82 654.39 405.24 647.53 389.03 644.11 371.96 648.25 362.98 653.31 353.79 658.86 344.41 664.03 334.86 668.01 325.2 670.07 315.43 669.68 305.61 666.51 295.76 660.47 285.91 651.71 276.09 640.61 266.34 627.76 256.67 613.87 247.12 599.74 237.7 586.2 228.44 573.99 219.34 563.75 210.41 555.93 201.68 550.8 184.86 549.45 168.59 554.15 143.48 550.76 142.73 531.2 144.66 521.81 146.71 512.43 148.78 503.05 150.76 493.66 152.52 484.28 153.99 474.9 155.07 465.51 155.71 456.13 155.88 446.74 155.56 437.36 154.77 427.98 153.56 418.59 151.99 409.21 150.15 399.83 148.13 390.44 146.05 381.06 144.03 371.67 142.16 362.29 140.56 352.91 139.3 343.52 138.47 334.14 138.1 324.75 138.22 315.37 138.81 305.99 139.85 296.6 141.28 287.22 143.02 277.83 144.97 268.45 153.86 259.41 162.86 249.6 171.96 239.48 181.14 229.52 190.38 220.18 199.66 211.84 208.95 204.82 218.24 199.29 227.5 195.32 236.69 192.81 245.8 191.57 254.79 191.29 272.25 191.92 289.15 191.76 304.95 186.87 320.02 177.98 327.11 171.23 333.95 163.41 340.54 154.82 346.9 145.82 353.03 136.8 358.95 128.13 370.22 113.72 381.12 102.66 389.09 98.08 391.73 96.91" stroke-dasharray="6 0" transform="rotate(12.12, 400, 400)" opacity="0.16"></path><path d="M398.86 109.24Q419.15 124.43 439.58 141.44 459.89 157.74 479.76 170.92 498.91 179.47 517.07 183.23 534.02 183.59 549.58 183.01 563.65 184.38 576.21 190.08 587.31 201.22 597.1 217.25 605.79 236.07 613.68 254.62 621.11 269.83 628.47 279.58 615.59 297.68 607.91 315.79 606.96 333.89 612.91 352 624.6 370.1 639.72 388.2 655.29 406.31 668.23 424.41 676.01 442.52 677.07 460.62 671.22 478.72 659.6 496.83 644.51 514.93 628.93 533.04 615.92 551.14 608.06 569.24 592.27 577.21 578.24 576.26 565.83 569.21 554.82 560.8 544.94 556.3 535.87 559.9 527.26 573.34 518.74 595.37 509.97 622.05 500.64 647.94 490.48 667.7 479.28 677.82 466.9 677.67 453.26 669.8 438.36 659.2 422.27 651.79 406.49 635.78 389.65 630.49 371.94 634.67 353.54 644.23 334.68 653.52 315.61 657.09 296.56 651.31 277.75 635.48 259.35 611.93 241.53 585.33 224.38 561.13 207.95 543.98 192.25 536.28 177.24 537.53 156.93 539.57 154.49 516.88 158.66 499.14 162.69 481.41 165.8 463.67 167.36 445.93 167.08 428.19 165 410.45 161.54 392.71 157.38 374.98 153.34 357.24 150.21 339.5 148.62 321.76 148.87 304.02 150.93 286.28 154.37 268.54 171.4 249.05 188.87 230.67 206.67 216.26 224.65 207.42 242.64 203.97 260.45 204.14 277.89 205.11 294.76 203.93 310.9 198.41 326.19 187.74 340.53 172.7 353.9 155.36 366.3 138.41 377.83 124.31 393.74 111.89 398.86 109.24" stroke-dasharray="9 4" transform="rotate(16.16, 400, 400)" opacity="0.20"></path><path d="M406.11 121.57Q425.37 136.22 444.42 152.67 463.01 168.66 480.9 181.99 497.89 191.13 513.77 195.68 528.43 196.54 541.77 195.73 553.79 195.78 564.53 199.09 574.1 207.21 582.69 220.37 590.54 237.36 597.93 255.86 605.18 273.01 612.64 286.26 601.98 303.54 596.54 320.83 597.3 338.11 604.12 355.4 615.78 372.68 630.18 389.97 644.72 407.25 656.8 424.54 664.23 441.82 665.68 459.1 660.89 476.39 650.72 493.67 637 510.96 622.2 528.24 608.98 545.52 599.73 562.81 583.46 564.35 568.77 559.36 555.62 551.46 543.87 545.18 533.32 544.67 523.75 552.55 514.88 569.12 506.41 592.22 498.04 617.81 489.48 641.08 480.46 657.76 470.75 665.37 460.17 663.95 448.58 656.08 435.9 646.22 422.12 639.46 405.59 624.05 388.28 618.28 370.38 621.26 352.09 629.7 333.64 638.85 315.24 643.85 297.08 641.1 279.33 629.18 262.13 609.27 245.57 584.73 229.71 560.12 214.56 539.96 200.09 527.43 186.23 523.54 167.76 522.14 166.44 500.71 170.72 484.03 174.68 467.34 177.62 450.66 179 433.97 178.58 417.29 176.44 400.6 172.95 383.91 168.75 367.23 164.59 350.54 161.22 333.86 159.25 317.17 159.03 300.48 160.61 283.8 163.68 267.11 179.8 248.67 196.4 233.19 213.39 222.56 230.65 217.24 248.05 216.23 265.43 217.38 282.6 217.99 299.4 215.63 315.65 208.74 331.21 197.09 345.94 181.76 359.78 164.82 372.68 148.69 384.66 135.49 400.94 124 406.11 121.57" stroke-dasharray="0 5" transform="rotate(20.200000000000003, 400, 400)" opacity="0.24"></path><path d="M412.72 133.9Q430.49 147.99 447.78 163.84 464.39 179.47 480.14 192.88 494.91 202.55 508.58 207.91 521.1 209.48 532.46 208.76 542.72 207.94 551.96 209.27 560.34 214.53 568.06 224.56 575.36 238.95 582.5 256.18 589.77 273.93 597.46 289.69 589.05 306.06 585.7 322.43 587.95 338.8 595.45 355.17 606.95 371.53 620.59 387.9 634.13 404.27 645.36 420.64 652.44 437.01 654.22 453.38 650.41 469.75 641.62 486.11 629.3 502.48 615.46 518.85 602.36 535.22 592.14 551.59 575.59 548.36 560.42 541.47 546.64 534.64 534.19 531.68 522.96 535.45 512.78 547.15 503.45 565.97 494.75 589.25 486.42 613.14 478.22 633.57 469.9 647.26 461.24 652.61 452.03 650.15 442.1 642.39 431.33 633.27 419.65 627.13 402.71 612.34 385.3 606.17 367.59 608.02 349.78 615.28 332.07 624.03 314.62 630.05 297.59 629.85 281.09 621.62 265.2 605.56 249.99 583.87 235.47 560.12 221.6 538.32 208.34 521.92 195.62 512.96 178.91 505.88 178.57 484.57 182.88 468.92 186.71 453.26 189.44 437.61 190.63 421.96 190.08 406.3 187.87 390.65 184.38 374.99 180.17 359.34 175.93 343.68 172.35 328.03 170.02 312.37 169.32 296.72 170.36 281.07 172.98 265.41 188.14 249.51 203.79 237.74 219.88 230.92 236.32 228.64 253 229.33 269.8 230.74 286.55 230.51 303.11 226.74 319.3 218.52 334.99 206.06 350.02 190.63 364.3 174.22 377.73 158.97 390.27 146.69 407.32 136.12 412.72 133.9" stroke-dasharray="3 0" transform="rotate(24.24, 400, 400)" opacity="0.28"></path><path d="M417.99 146.23Q433.94 159.74 449.24 174.97 463.74 190.18 477.34 203.57 489.97 213.71 501.6 219.88 512.23 222.28 521.91 221.97 538.53 222.02 553.48 230.2 560.49 241.49 567.59 256.43 575.01 273.41 583.01 290.28 576.82 305.66 575.37 321.05 578.9 336.44 586.87 351.82 598.11 367.21 610.95 382.59 623.51 397.98 633.92 413.37 640.65 428.75 642.71 444.14 639.78 459.52 632.31 474.91 621.39 490.29 608.64 505.68 595.95 521.06 585.18 536.45 568.55 530.6 553.09 523.93 538.85 519.73 525.82 520.78 513.95 528.66 503.13 543.44 493.24 563.55 484.12 586.19 475.56 607.89 467.38 625.36 451.19 636.25 434.31 628.73 425.05 620.34 415.11 614.8 398.19 600.65 381.09 594.15 363.98 594.95 347.01 601.02 330.34 609.16 314.09 615.77 298.37 617.65 283.25 612.73 268.77 600.54 254.95 582.27 241.76 560.46 229.16 538.44 217.09 519.49 205.44 506.17 194.13 499.69 183.03 499.67 186.63 484.99 190.87 470.31 195.13 455.63 198.77 440.95 201.27 426.27 202.24 411.59 201.56 396.91 199.31 382.22 195.83 367.54 191.64 352.86 187.35 338.18 183.6 323.5 180.93 308.82 179.76 294.14 180.24 279.45 182.31 264.77 196.47 252.47 211.12 244.68 226.23 241.33 241.75 241.34 257.59 242.91 273.66 243.92 289.82 242.44 305.94 237.18 321.89 227.73 337.52 214.65 352.69 199.32 367.27 183.56 381.16 169.27 394.27 157.91 412.27 148.25 417.99 146.23" stroke-dasharray="1 10" transform="rotate(28.28, 400, 400)" opacity="0.32"></path><path d="M421.36 158.56Q435.32 171.47 448.55 186.04 460.96 200.77 472.53 214.07 483.22 224.58 493.06 231.53 510.13 234.4 525.41 232.84 532.38 233.58 539.22 237.56 546.15 245.56 553.35 257.49 561.03 272.46 569.38 288.91 565.29 303.29 565.54 317.66 570.1 332.03 578.36 346.4 589.23 360.78 601.26 375.15 612.86 389.52 622.48 403.9 628.86 418.27 631.14 432.64 629.01 447.02 622.77 461.39 613.25 475.76 601.69 490.14 589.65 504.51 578.71 518.88 562.23 512.68 546.69 508.06 532.18 507.5 518.73 512.7 506.32 524.14 494.92 541.06 484.45 561.51 474.79 582.77 465.83 601.92 457.41 616.42 441.55 623.52 425.8 615.11 417.6 607.45 408.98 602.47 392.54 588.97 376.18 582.24 360.03 582.07 344.21 586.94 328.83 594.3 313.98 601.13 299.71 604.58 286.05 602.53 273 594.03 260.57 579.47 248.69 560.48 237.31 539.54 226.35 519.54 215.73 503.07 205.34 492 195.09 487.03 199 473.24 203.31 459.45 207.44 445.66 210.85 431.87 213.08 418.08 213.84 404.29 213.03 390.5 210.75 376.71 207.3 362.92 203.15 349.13 198.85 335.33 194.96 321.54 192 307.75 190.37 293.96 190.28 280.18 191.75 266.39 204.88 258.16 218.49 254.12 232.56 253.52 247.07 254.93 261.95 256.56 277.14 256.6 292.55 253.62 308.05 246.87 323.54 236.36 338.89 222.9 353.97 207.85 368.65 192.88 382.83 179.58 396.39 169.17 415.31 160.38 421.36 158.56" stroke-dasharray="10 3" transform="rotate(32.32, 400, 400)" opacity="0.35"></path><path d="M422.49 170.9Q434.44 183.19 445.66 197.08 456.14 211.27 465.89 224.38 474.92 235.16 483.29 242.81 498.23 247.25 512.09 245.91 525.64 248.4 539.93 260.16 547.91 272.21 556.6 286.83 554.45 300.2 556.16 313.57 561.52 326.94 569.91 340.31 580.32 353.68 591.52 367.05 602.18 380.42 611.05 393.79 617.06 407.16 619.51 420.53 618.1 433.9 613.01 447.27 604.83 460.64 594.54 474.02 583.35 487.39 572.6 500.76 556.47 496.2 541.08 494.9 526.51 498.4 512.82 507.39 500.04 521.55 488.17 539.58 477.17 559.45 466.98 578.75 457.52 595.12 448.7 606.73 432.6 610.51 417.24 601.53 409.65 594.58 401.9 590.13 386.38 577.3 371.13 570.4 356.26 569.37 341.84 573.07 327.93 579.51 314.59 586.23 301.83 590.76 289.65 591.06 278.04 585.92 266.94 575.12 256.31 559.51 246.08 540.78 236.17 521.18 226.49 503.09 216.96 488.54 207.48 478.92 211.59 465.93 215.87 452.94 219.81 439.95 222.93 426.96 224.88 413.97 225.42 400.98 224.48 387.99 222.18 375 218.79 362.01 214.71 349.02 210.43 336.03 206.45 323.04 203.24 310.05 201.19 297.06 200.54 284.08 201.36 271.09 213.45 266.8 225.99 265.83 238.97 267.03 252.4 268.9 266.23 269.86 280.42 268.5 294.91 263.92 309.6 255.79 324.42 244.46 339.26 230.85 354 216.28 368.54 202.2 382.75 189.94 396.55 180.46 416.16 172.53 422.49 170.9" stroke-dasharray="1 5" transform="rotate(36.36, 400, 400)" opacity="0.39"></path><path d="M421.26 183.23Q431.31 194.89 440.72 208.07 449.53 221.66 457.76 234.48 465.46 245.42 472.71 253.67 486.16 259.9 499.18 259.49 512.75 258.9 527.42 265.06 535.7 273.69 544.69 285.42 544.27 297.83 547.19 310.24 553.14 322.65 561.48 335.06 571.36 347.47 581.72 359.88 591.48 372.29 599.61 384.7 605.26 397.11 607.83 409.52 607.06 421.94 603.02 434.35 596.13 446.76 587.13 459.17 576.96 471.58 566.69 483.99 551.12 482.54 536.08 485.16 521.68 492.53 507.98 504.57 495.02 520.4 482.84 538.52 471.43 557.03 460.78 573.92 450.84 587.42 441.55 596.3 424.84 597.27 409.29 588 401.93 581.75 394.63 577.8 380.39 565.66 366.55 558.67 353.18 556.88 340.32 559.45 327.99 564.87 316.21 571.2 304.96 576.33 294.22 578.44 283.97 576.19 274.13 568.97 264.66 557.01 255.48 541.3 246.53 523.41 237.71 505.26 228.95 488.77 220.19 475.56 224.38 463.29 228.53 451.02 232.2 438.75 235.01 426.48 236.66 414.2 236.97 401.93 235.92 389.66 233.62 377.39 230.3 365.12 226.32 352.85 222.09 340.58 218.06 328.31 214.66 316.03 212.23 303.76 216.65 284.84 233.71 279.27 245.58 281.23 257.87 282.69 270.58 282.39 283.67 279.39 297.11 273.21 310.84 263.91 324.78 252.03 338.88 238.53 353.02 224.62 367.13 211.53 381.11 200.34 394.85 191.78 414.76 184.68 421.26 183.23" stroke-dasharray="5 3" transform="rotate(40.400000000000006, 400, 400)" opacity="0.43"></path><path d="M417.79 195.55Q426.18 206.57 434.08 219.01 441.53 231.96 448.59 244.4 455.31 255.37 461.77 264.1 474.32 272.18 486.95 273.29 500.77 270.9 515.9 272.53 524.44 277.73 533.65 285.98 534.72 297.5 538.59 309.01 544.9 320.53 553.07 332.05 562.35 343.56 571.86 355.08 580.75 366.6 588.17 378.12 593.46 389.63 596.1 401.15 595.88 412.67 592.79 424.19 587.13 435.7 579.43 447.22 570.39 458.74 560.85 470.26 546.01 472.63 531.54 479.11 517.52 489.67 504.02 503.7 491.1 520.1 478.81 537.37 467.17 553.88 456.19 568.08 445.86 578.75 436.15 585.14 427.02 587.13 418.42 585.23 410.29 580.52 402.55 574.52 395.12 568.94 387.92 565.47 375.23 554.03 362.99 547.03 351.25 544.57 340.01 546.08 329.27 550.44 319.01 556.13 309.22 561.46 299.85 564.82 290.85 564.9 282.17 560.89 273.74 552.57 265.51 540.34 257.41 525.16 249.36 508.39 241.31 491.62 233.18 476.38 237.33 464.77 241.26 453.16 244.6 441.54 247.06 429.93 248.4 418.32 248.5 406.7 247.35 395.09 245.06 383.48 241.83 371.86 237.97 360.25 233.83 348.64 229.8 337.02 226.25 325.41 223.51 313.8 226.6 296.95 241.74 293.71 252.49 295.41 263.63 295.73 275.16 293.8 287.09 289.09 299.37 281.49 311.99 271.29 324.9 259.16 338.04 246.02 351.35 232.93 364.76 220.91 378.2 210.8 391.57 203.14 411.29 196.84 417.79 195.55" stroke-dasharray="4 11" transform="rotate(44.44, 400, 400)" opacity="0.47"></path><path d="M412.45 207.88Q419.51 218.24 426.23 229.92 432.68 242.16 438.9 254.13 444.97 265 450.95 274.06 463.07 283.94 475.67 286.98 489.84 284.08 505.39 282.6 514.12 284.77 523.45 289.51 525.74 300.21 530.3 310.91 536.78 321.61 544.65 332.31 553.27 343.01 561.95 353.71 569.99 364.41 576.74 375.11 581.65 385.81 584.33 396.51 584.57 407.21 582.34 417.91 577.82 428.61 571.38 439.31 563.54 450.01 554.92 460.71 540.98 466.87 527.25 476.53 513.81 489.23 500.74 504.11 488.1 520.01 475.92 535.64 464.26 549.71 453.14 561.13 442.56 569.11 432.54 573.3 423.05 573.81 414.07 571.25 405.57 566.59 397.51 561.1 389.83 556.17 382.48 553.14 371.47 542.41 360.92 535.47 350.83 532.45 341.18 532.99 331.96 536.27 323.14 541.15 306.68 549.26 291.01 550.88 283.51 545.91 276.11 537.28 268.76 525.43 261.39 511.19 253.96 495.67 246.41 480.15 250.39 469.17 254.02 458.18 256.99 447.19 259.08 436.21 260.11 425.22 260 414.24 258.76 403.25 256.49 392.27 253.38 381.28 249.66 370.29 245.65 359.31 241.67 348.32 238.03 337.34 235.04 326.35 236.9 310.9 250.18 308.22 259.81 308.83 269.8 307.53 280.14 303.81 290.85 297.5 301.92 288.73 313.34 277.98 325.07 265.91 337.09 253.37 349.36 241.25 361.83 230.35 374.43 221.32 387.12 214.54 406.13 209.01 412.45 207.88" stroke-dasharray="10 5" transform="rotate(48.48, 400, 400)" opacity="0.51"></path><path d="M405.8 220.21Q411.88 229.9 417.78 240.79 423.56 252.28 429.27 263.68 434.97 274.32 440.72 283.56 452.76 295.06 465.52 300.21 480.04 297.97 495.9 294.96 510.98 300.68 522.28 316.46 528.74 326.41 536.2 336.37 544.13 346.32 551.98 356.27 559.2 366.22 565.3 376.17 569.84 386.13 572.52 396.08 573.14 406.03 571.66 415.98 568.18 425.93 562.95 435.89 556.33 445.84 548.79 455.79 535.86 465.03 523.03 476.8 510.36 490.43 497.92 505 485.76 519.5 473.93 532.91 462.48 544.3 451.44 552.98 440.83 558.51 430.66 560.82 420.96 560.18 411.7 557.18 402.89 552.69 394.5 547.74 386.51 543.43 378.88 540.81 369.57 530.8 360.66 523.99 344.15 521.48 328.62 526.37 314.37 534.69 300.61 539.07 293.9 536.96 287.21 531.73 280.51 523.41 273.73 512.4 266.85 499.36 259.83 485.17 263.53 474.82 266.78 464.46 269.34 454.1 271.05 443.75 271.78 433.39 271.47 423.03 270.16 412.68 267.93 402.32 264.94 391.96 261.39 381.61 257.54 371.25 253.65 360.89 249.99 350.54 246.82 340.18 247.58 325.51 259.09 321.86 267.64 320.82 276.5 317.67 285.66 312.23 295.16 304.58 304.98 295.02 315.14 284.07 325.61 272.37 336.4 260.65 347.46 249.61 358.78 239.88 370.32 231.91 382.04 225.99 399.84 221.18 405.8 220.21" stroke-dasharray="4 10" transform="rotate(52.52, 400, 400)" opacity="0.54"></path><path d="M398.54 232.54Q403.98 241.54 409.38 251.63 414.78 262.32 420.24 273.08 425.79 283.35 431.49 292.59 443.65 305.42 456.64 312.69 471.4 312.03 487.38 309.01 502.67 311.95 514.46 325.6 520.75 334.85 527.7 344.11 534.91 353.37 541.95 362.63 548.39 371.88 553.87 381.14 558.04 390.4 560.67 399.66 561.59 408.91 560.76 418.17 558.22 427.43 554.12 436.69 548.71 445.94 542.31 455.2 530.5 466.35 518.69 478.94 506.95 492.27 495.32 505.54 483.85 517.95 472.58 528.79 461.57 537.47 450.84 543.59 440.42 546.99 430.34 547.78 420.61 546.28 411.26 543.06 402.27 538.83 393.66 534.44 385.4 530.72 377.5 528.49 369.79 519.2 362.39 512.6 348.54 508.86 335.38 511.88 323 519.7 310.84 525.68 298.68 522.18 286.3 511.03 279.91 501.2 273.35 489.58 276.68 479.88 279.5 470.18 281.63 460.49 282.96 450.79 283.39 441.09 282.91 431.39 281.54 421.69 279.37 412 276.52 402.3 273.17 392.6 269.5 382.9 265.75 373.2 262.13 363.5 258.86 353.8 258.67 339.48 268.53 333.78 276.06 330.84 283.82 325.9 291.85 319.02 300.15 310.42 308.74 300.49 317.63 289.71 326.81 278.67 336.29 267.94 346.06 258.07 356.1 249.52 366.39 242.6 376.92 237.49 393.09 233.37 398.54 232.54" stroke-dasharray="10 3" transform="rotate(56.56, 400, 400)" opacity="0.58"></path><path d="M391.43 244.88Q401.68 262.44 412.3 282.34 423.59 301.17 435.78 315.75 449.1 324.13 463.73 326.22 479.77 323.9 497.24 320.47 506.79 337.65 519.14 354.83 531.85 372.01 542.43 389.19 548.78 406.37 549.65 423.55 544.87 440.73 535.38 457.91 514.07 481.74 492.69 504.95 471.58 523.04 451.02 532.99 431.28 534.24 412.53 528.9 394.92 521.2 378.49 516.15 366.07 501.27 354.41 495.51 343.28 497.78 332.41 504.56 321.56 511.06 310.49 512.67 299 506.38 286.92 491.62 292.15 473.64 294.79 455.66 294.31 437.68 290.81 419.7 284.97 401.72 277.96 383.74 271.15 365.76 265.88 347.78 278.55 343.34 291.85 332.16 305.96 315.17 321.01 295.05 337.09 275.32 354.22 259.29 372.36 249.06 391.43 244.88 391.43 244.88 391.43 244.88" stroke-dasharray="7 0" transform="rotate(60.599999999999994, 400, 400)" opacity="0.62"></path><path d="M385.22 257.21Q395.26 273.22 405.88 291.46 417.26 309.32 429.56 324.23 442.9 334.32 457.35 338.89 472.95 338.65 489.68 335.6 499.2 351.45 510.49 367.3 521.7 383.16 530.99 399.01 536.85 414.86 538.33 430.71 535.17 446.57 527.9 462.42 508.98 483.97 489.8 502.6 470.6 515.49 451.63 521.26 433.09 520.31 415.17 514.78 398.02 508.03 381.74 503.82 371.52 490.02 361.69 483.64 352.05 484.15 342.4 489.26 332.57 495.62 322.38 499.59 311.71 498.23 300.44 489.99 304.68 473.54 306.53 457.09 305.67 440.64 302.24 424.18 296.82 407.73 290.27 391.28 283.68 374.82 278.12 358.37 289.15 350.15 300.62 336.52 312.68 319.05 325.46 300.24 339.06 282.85 353.54 269.22 377.08 258.94 385.22 257.21" stroke-dasharray="10 8" transform="rotate(64.64, 400, 400)" opacity="0.66"></path><path d="M380.57 269.54Q390.57 283.98 401.23 300.46 412.63 317.08 424.86 331.85 437.96 343.13 451.95 349.96 466.82 352.3 482.51 351.06 491.64 365.54 501.74 380.02 511.47 394.5 519.55 408.98 524.9 423.46 526.82 437.95 525.03 452.43 519.8 466.91 503.3 484.45 486.43 497.99 469.38 506.11 452.3 508.51 435.37 506.07 418.74 500.69 402.55 494.94 386.9 491.49 378.36 478.84 369.91 472.08 361.4 471.04 352.7 474.35 343.69 479.8 334.25 484.75 320.69 477.95 318.16 454.34 316.98 439.52 313.68 424.7 308.69 409.88 302.68 395.06 296.44 380.24 290.81 365.43 300.35 354.2 310.16 339.28 320.36 322.36 331.06 305.47 342.36 290.62 354.35 279.32 373.82 270.94 380.57 269.54" stroke-dasharray="8 7" transform="rotate(68.68, 400, 400)" opacity="0.70"></path><path d="M377.96 281.87Q387.92 294.72 398.49 309.38 409.7 324.5 421.59 338.65 434.14 350.5 447.37 359.09 461.21 363.99 475.63 365.35 484.05 378.39 492.87 391.42 501.19 404.45 508.12 417.49 512.93 430.52 515.12 443.56 514.46 456.59 511.02 469.63 496.91 482.27 482.41 490.88 467.62 494.99 452.66 494.91 437.65 491.63 422.71 486.69 407.94 481.92 393.44 479.16 386.1 467.72 378.64 460.84 362.82 461.29 345.93 468.84 332.98 466.52 329.69 447.38 328.26 434.28 325.11 421.17 320.59 408.07 315.17 394.96 309.41 381.86 303.92 368.76 312.11 355.81 320.43 340.89 328.98 325.44 337.84 310.94 347.1 298.69 356.83 289.61 372.53 282.97 377.96 281.87" stroke-dasharray="3 5" transform="rotate(72.72, 400, 400)" opacity="0.73"></path><path d="M377.66 294.2Q387.41 305.45 397.64 318.23 408.36 331.66 419.58 344.73 431.28 356.5 443.43 366.14 455.99 373.09 468.91 377.13 476.37 388.63 483.88 400.13 490.84 411.63 496.68 423.13 500.93 434.63 503.25 446.13 503.46 457.63 501.52 469.13 489.73 476.86 477.56 481.23 465.09 482.31 452.37 480.64 439.5 477.09 426.54 472.79 413.58 468.97 400.67 466.83 387.26 451.64 373.03 446.53 365.33 448.86 357.25 452.61 345 452.41 341.08 436.88 339.48 425.53 336.55 414.18 332.53 402.83 327.73 391.48 322.55 380.13 317.41 368.78 324.38 355.64 331.39 341.92 338.5 328.67 345.76 316.82 353.25 307.15 361.03 300.12 373.41 295.04 377.66 294.2" stroke-dasharray="3 7" transform="rotate(76.76, 400, 400)" opacity="0.77"></path><path d="M379.72 306.53Q388.93 316.17 398.49 327.04 408.39 338.6 418.61 350.22 429.14 361.25 439.93 371.11 450.97 379.29 462.22 385.45 468.56 395.34 474.76 405.22 480.43 415.1 485.24 424.99 488.92 434.87 491.23 444.75 486.88 461.35 471.79 469.25 461.59 468.37 451.14 465.92 440.5 462.55 429.7 459.02 418.8 456.1 407.83 454.5 395.56 440.51 382.48 433.93 360.42 435.47 352.34 424.06 350.66 414.47 347.99 404.87 344.49 395.27 340.36 385.68 335.85 376.08 331.24 366.48 337.11 354.57 342.95 343 348.8 332.4 354.71 323.29 373.33 309.21 379.72 306.53" stroke-dasharray="4 2" transform="rotate(80.80000000000001, 400, 400)" opacity="0.81"></path><path d="M383.9 318.86Q400.75 335.84 418.38 355.26 436.67 374.23 455.43 389.91 465.48 406.33 473.81 422.75 479.06 439.17 480.38 455.59 465.01 455.39 448.74 450.97 431.73 445.42 414.17 442.16 403.08 428.86 391.11 422.38 378.24 422.21 364.47 426.26 363.46 410.51 359.43 394.76 353.03 379 345.32 363.25 354.98 344.79 364.5 330.48 378.99 320.35 383.9 318.86" stroke-dasharray="4 6" transform="rotate(84.84, 400, 400)" opacity="0.85"></path><path d="M389.78 331.19Q403.99 344.64 418.56 360.04 433.41 375.93 448.45 390.74 456.04 403.76 462.37 416.78 461.98 435.01 445.01 436.03 432.26 432 419.02 429.83 409.16 418.74 398.7 411.92 387.65 409.35 376.04 410.35 374.42 397.92 370.86 385.5 365.74 373.07 359.59 360.64 367.34 347.87 374.9 338.54 386.06 332.12 389.78 331.19" stroke-dasharray="5 5" transform="rotate(88.88, 400, 400)" opacity="0.89"></path><path d="M396.73 343.52Q407.71 353.48 418.8 364.75 429.97 376.74 441.16 388.78 446.44 398.42 450.93 408.07 441.2 419.92 421.86 417.51 413.65 408.87 405.1 402.55 390.73 393.24 382.3 378.61 379.17 361.07 385.62 347.54 393.98 344.02 396.73 343.52" stroke-dasharray="10 1" transform="rotate(92.92, 400, 400)" opacity="0.92"></path><path d="M404.03 355.85Q418.76 369.6 433.47 385.37 436.43 402.53 422.41 405.18 410.21 394.26 397.51 387.46 399.53 361.11 404.03 355.85" stroke-dasharray="10 5" transform="rotate(96.96, 400, 400)" opacity="0.96"></path></g></svg>